<svg width="40" height="44" viewBox="0 0 40 44" fill="none" xmlns="http://www.w3.org/2000/svg">
<path d="M1.16663 1.16669H30.3333C34.2625 1.16669 36.225 1.16669 37.4458 2.38752C38.6666 3.60835 38.6666 5.57085 38.6666 9.50002V22C38.6666 25.9292 38.6666 27.8917 37.4458 29.1125C36.225 30.3334 34.2625 30.3334 30.3333 30.3334H15.75M17.8333 10.5417H30.3333M1.16663 32.4167V24.0834C1.16663 22.1188 1.16663 21.1375 1.77704 20.5271C2.38746 19.9167 3.36871 19.9167 5.33329 19.9167H9.49996M1.16663 32.4167H9.49996M1.16663 32.4167V42.8334M9.49996 19.9167V32.4167M9.49996 19.9167H22M9.49996 32.4167V42.8334" stroke="black" stroke-width="1.5" stroke-linecap="round" stroke-linejoin="round"/>
<path d="M1.16663 1.16669H30.3333C34.2625 1.16669 36.225 1.16669 37.4458 2.38752C38.6666 3.60835 38.6666 5.57085 38.6666 9.50002V22C38.6666 25.9292 38.6666 27.8917 37.4458 29.1125C36.225 30.3334 34.2625 30.3334 30.3333 30.3334H15.75M17.8333 10.5417H30.3333M1.16663 32.4167V24.0834C1.16663 22.1188 1.16663 21.1375 1.77704 20.5271C2.38746 19.9167 3.36871 19.9167 5.33329 19.9167H9.49996M1.16663 32.4167H9.49996M1.16663 32.4167V42.8334M9.49996 19.9167V32.4167M9.49996 19.9167H22M9.49996 32.4167V42.8334" stroke="black" stroke-width="1.5" stroke-linecap="round" stroke-linejoin="round"/>
<path d="M9.49996 10.5417C9.49996 11.6467 9.06097 12.7065 8.27957 13.4879C7.49817 14.2693 6.43836 14.7083 5.33329 14.7083C4.22822 14.7083 3.16842 14.2693 2.38701 13.4879C1.60561 12.7065 1.16663 11.6467 1.16663 10.5417C1.16663 9.4366 1.60561 8.37679 2.38701 7.59539C3.16842 6.81399 4.22822 6.375 5.33329 6.375C6.43836 6.375 7.49817 6.81399 8.27957 7.59539C9.06097 8.37679 9.49996 9.4366 9.49996 10.5417Z" stroke="black" stroke-width="1.5" stroke-linecap="round" stroke-linejoin="round"/>
</svg>
