<svg width="50" height="50" viewBox="0 0 50 50" fill="none" xmlns="http://www.w3.org/2000/svg">
<path d="M4.16663 4.16669H33.3333C37.2625 4.16669 39.225 4.16669 40.4458 5.38752C41.6666 6.60835 41.6666 8.57085 41.6666 12.5V25C41.6666 28.9292 41.6666 30.8917 40.4458 32.1125C39.225 33.3334 37.2625 33.3334 33.3333 33.3334H18.75M20.8333 13.5417H33.3333M4.16663 35.4167V27.0834C4.16663 25.1188 4.16663 24.1375 4.77704 23.5271C5.38746 22.9167 6.36871 22.9167 8.33329 22.9167H12.5M4.16663 35.4167H12.5M4.16663 35.4167V45.8334M12.5 22.9167V35.4167M12.5 22.9167H25M12.5 35.4167V45.8334" stroke="black" stroke-width="1.5" stroke-linecap="round" stroke-linejoin="round"/>
<path d="M4.16663 4.16669H33.3333C37.2625 4.16669 39.225 4.16669 40.4458 5.38752C41.6666 6.60835 41.6666 8.57085 41.6666 12.5V25C41.6666 28.9292 41.6666 30.8917 40.4458 32.1125C39.225 33.3334 37.2625 33.3334 33.3333 33.3334H18.75M20.8333 13.5417H33.3333M4.16663 35.4167V27.0834C4.16663 25.1188 4.16663 24.1375 4.77704 23.5271C5.38746 22.9167 6.36871 22.9167 8.33329 22.9167H12.5M4.16663 35.4167H12.5M4.16663 35.4167V45.8334M12.5 22.9167V35.4167M12.5 22.9167H25M12.5 35.4167V45.8334" stroke="black" stroke-width="1.5" stroke-linecap="round" stroke-linejoin="round"/>
<path d="M12.5 13.5417C12.5 14.6467 12.061 15.7065 11.2796 16.4879C10.4982 17.2693 9.43836 17.7083 8.33329 17.7083C7.22822 17.7083 6.16842 17.2693 5.38701 16.4879C4.60561 15.7065 4.16663 14.6467 4.16663 13.5417C4.16663 12.4366 4.60561 11.3768 5.38701 10.5954C6.16842 9.81399 7.22822 9.375 8.33329 9.375C9.43836 9.375 10.4982 9.81399 11.2796 10.5954C12.061 11.3768 12.5 12.4366 12.5 13.5417Z" stroke="black" stroke-width="1.5" stroke-linecap="round" stroke-linejoin="round"/>
</svg>
