<svg width="28" height="24" viewBox="0 0 28 24" fill="none" xmlns="http://www.w3.org/2000/svg">
<path d="M27.125 7.95312C27.125 16.1562 14.9621 22.7961 14.4441 23.0703C14.3076 23.1438 14.155 23.1822 14 23.1822C13.845 23.1822 13.6924 23.1438 13.5559 23.0703C13.0379 22.7961 0.875 16.1562 0.875 7.95312C0.877171 6.02683 1.64335 4.18005 3.00545 2.81795C4.36755 1.45585 6.21433 0.689671 8.14062 0.6875C10.5605 0.6875 12.6793 1.72812 14 3.48711C15.3207 1.72812 17.4395 0.6875 19.8594 0.6875C21.7857 0.689671 23.6325 1.45585 24.9946 2.81795C26.3566 4.18005 27.1228 6.02683 27.125 7.95312Z" fill="#F2301E"/>
</svg>
