<svg width="20" height="40" viewBox="0 0 20 40" fill="none" xmlns="http://www.w3.org/2000/svg">
<path d="M0.537466 36.6275C0.365782 36.8183 0.231564 37.0428 0.142475 37.2881C0.0533852 37.5334 0.0111683 37.7948 0.0182366 38.0572C0.025305 38.3197 0.0815195 38.5781 0.18367 38.8177C0.28582 39.0573 0.431905 39.2735 0.613585 39.4538C0.795266 39.6342 1.00898 39.7751 1.24254 39.8687C1.47609 39.9623 1.7249 40.0066 1.97476 39.9992C2.22463 39.9918 2.47066 39.9327 2.6988 39.8254C2.92694 39.7181 3.13273 39.5647 3.30441 39.3739L19.4798 21.3844C19.8139 21.0133 20 20.522 20 20.0112C20 19.5005 19.8139 19.0092 19.4798 18.638L3.30441 0.646598C3.13386 0.45159 2.92812 0.294119 2.69914 0.183334C2.47016 0.0725504 2.2225 0.0106612 1.97056 0.00125901C1.71861 -0.00814314 1.4674 0.0351325 1.23151 0.128568C0.995624 0.222004 0.779761 0.363738 0.596464 0.545541C0.413167 0.727344 0.266088 0.945589 0.163772 1.1876C0.0614552 1.42961 0.00594039 1.69057 0.000451273 1.9553C-0.00503784 2.22004 0.0396077 2.48329 0.131796 2.72975C0.223985 2.97621 0.361878 3.20097 0.537466 3.39099L15.4797 20.0112L0.537466 36.6275Z" fill="#777777"/>
</svg>
