<svg width="300" height="300" viewBox="0 0 300 300" fill="none" xmlns="http://www.w3.org/2000/svg">
<rect width="300" height="300" fill="#D9D9D9"/>
<path d="M68.75 262.5C68.75 262.5 52.5 262.5 52.5 246.25C52.5 230 68.75 181.25 150 181.25C231.25 181.25 247.5 230 247.5 246.25C247.5 262.5 231.25 262.5 231.25 262.5H68.75ZM150 165C162.929 165 175.329 159.864 184.471 150.721C193.614 141.579 198.75 129.179 198.75 116.25C198.75 103.321 193.614 90.9209 184.471 81.7785C175.329 72.6361 162.929 67.5 150 67.5C137.071 67.5 124.671 72.6361 115.529 81.7785C106.386 90.9209 101.25 103.321 101.25 116.25C101.25 129.179 106.386 141.579 115.529 150.721C124.671 159.864 137.071 165 150 165Z" fill="white"/>
</svg>
