<svg width="24" height="24" viewBox="0 0 24 24" fill="none" xmlns="http://www.w3.org/2000/svg">
<path d="M22.5 0C22.3887 0 22.2744 0.0205079 22.1602 0.0673829L5.27344 6.85254H0.46875C0.210938 6.85254 0 7.06934 0 7.33887V16.0986C0 16.3682 0.210938 16.585 0.46875 16.585H3.44824C3.33984 16.9248 3.28125 17.2852 3.28125 17.6514C3.28125 19.582 4.85742 21.1523 6.79688 21.1523C8.41992 21.1523 9.78809 20.0508 10.1924 18.5625L22.1631 23.373C22.2773 23.417 22.3916 23.4404 22.5029 23.4404C22.998 23.4404 23.4404 23.0244 23.4404 22.4678V0.972656C23.4375 0.416016 22.998 0 22.5 0ZM6.79688 19.0518C6.02051 19.0518 5.39062 18.4248 5.39062 17.6514C5.39062 17.3232 5.50488 17.0098 5.71289 16.7607L8.2002 17.7598C8.1416 18.4805 7.53516 19.0518 6.79688 19.0518ZM21.3281 20.7627L6.05859 14.6279L5.68066 14.4756H2.10938V8.96191H5.68066L6.05859 8.80957L21.3281 2.6748V20.7627Z" fill="#777777"/>
</svg>
