<svg width="18" height="18" viewBox="0 0 18 18" fill="none" xmlns="http://www.w3.org/2000/svg">
<path fill-rule="evenodd" clip-rule="evenodd" d="M2.28509 18H5.39999L6.66539 14.6718L3.99599 13.7682L2.28509 18ZM11.3346 14.6718L12.6 18H15.7149L14.004 13.7682L11.3346 14.6718ZM16.2 1.8H10.35L9.89999 0H8.09999L7.64999 1.8H1.79999C1.5613 1.8 1.33238 1.89482 1.1636 2.0636C0.994815 2.23239 0.899994 2.46131 0.899994 2.7V12.6C0.899994 12.8387 0.994815 13.0676 1.1636 13.2364C1.33238 13.4052 1.5613 13.5 1.79999 13.5H16.2C16.4387 13.5 16.6676 13.4052 16.8364 13.2364C17.0052 13.0676 17.1 12.8387 17.1 12.6V2.7C17.1 2.46131 17.0052 2.23239 16.8364 2.0636C16.6676 1.89482 16.4387 1.8 16.2 1.8Z" fill="#CCCCCC"/>
</svg>
